<mxfile host="app.diagrams.net" agent="Mozilla/5.0 (X11; Ubuntu; Linux x86_64; rv:135.0) Gecko/20100101 Firefox/135.0" version="26.1.1">
  <diagram name="Page-1" id="jKR9UgTxQOSQTGOUGUBC">
    <mxGraphModel dx="1434" dy="790" grid="1" gridSize="10" guides="1" tooltips="1" connect="1" arrows="1" fold="1" page="1" pageScale="1" pageWidth="850" pageHeight="1100" math="0" shadow="0">
      <root>
        <mxCell id="0" />
        <mxCell id="1" parent="0" />
        <mxCell id="p4Sjp9b0wxkfWSFFv8C0-1" value="&lt;b&gt;&lt;font style=&quot;font-size: 18px;&quot;&gt;Curso&lt;/font&gt;&lt;/b&gt;" style="rounded=0;whiteSpace=wrap;html=1;" vertex="1" parent="1">
          <mxGeometry x="180" y="120" width="120" height="60" as="geometry" />
        </mxCell>
        <mxCell id="p4Sjp9b0wxkfWSFFv8C0-2" value="&lt;b&gt;&lt;font style=&quot;font-size: 18px;&quot;&gt;Categoría&lt;/font&gt;&lt;/b&gt;" style="rounded=0;whiteSpace=wrap;html=1;" vertex="1" parent="1">
          <mxGeometry x="180" y="280" width="120" height="60" as="geometry" />
        </mxCell>
        <mxCell id="p4Sjp9b0wxkfWSFFv8C0-3" value="&lt;b&gt;&lt;font style=&quot;font-size: 18px;&quot;&gt;Clase&lt;/font&gt;&lt;/b&gt;" style="rounded=0;whiteSpace=wrap;html=1;" vertex="1" parent="1">
          <mxGeometry x="180" y="360" width="120" height="60" as="geometry" />
        </mxCell>
        <mxCell id="p4Sjp9b0wxkfWSFFv8C0-4" value="&lt;b&gt;&lt;font style=&quot;font-size: 18px;&quot;&gt;Salón&lt;/font&gt;&lt;/b&gt;" style="rounded=0;whiteSpace=wrap;html=1;" vertex="1" parent="1">
          <mxGeometry x="180" y="460" width="120" height="60" as="geometry" />
        </mxCell>
        <mxCell id="p4Sjp9b0wxkfWSFFv8C0-5" value="&lt;b&gt;&lt;font style=&quot;font-size: 18px;&quot;&gt;Manual&lt;/font&gt;&lt;/b&gt;" style="rounded=0;whiteSpace=wrap;html=1;" vertex="1" parent="1">
          <mxGeometry x="180" y="560" width="120" height="60" as="geometry" />
        </mxCell>
        <mxCell id="p4Sjp9b0wxkfWSFFv8C0-6" value="&lt;b&gt;&lt;font style=&quot;font-size: 18px;&quot;&gt;Instructor&lt;/font&gt;&lt;/b&gt;" style="rounded=0;whiteSpace=wrap;html=1;" vertex="1" parent="1">
          <mxGeometry x="180" y="660" width="120" height="60" as="geometry" />
        </mxCell>
        <mxCell id="p4Sjp9b0wxkfWSFFv8C0-7" value="&lt;b&gt;&lt;font style=&quot;font-size: 18px;&quot;&gt;URL Instructor&lt;/font&gt;&lt;/b&gt;" style="rounded=0;whiteSpace=wrap;html=1;" vertex="1" parent="1">
          <mxGeometry x="430" y="460" width="120" height="60" as="geometry" />
        </mxCell>
        <mxCell id="p4Sjp9b0wxkfWSFFv8C0-8" value="&lt;b&gt;&lt;font style=&quot;font-size: 18px;&quot;&gt;Estudio de Instructor&lt;/font&gt;&lt;/b&gt;" style="rounded=0;whiteSpace=wrap;html=1;" vertex="1" parent="1">
          <mxGeometry x="430" y="540" width="120" height="60" as="geometry" />
        </mxCell>
        <mxCell id="p4Sjp9b0wxkfWSFFv8C0-9" value="&lt;b&gt;&lt;font style=&quot;font-size: 18px;&quot;&gt;Supervisor&lt;/font&gt;&lt;/b&gt;" style="rounded=0;whiteSpace=wrap;html=1;" vertex="1" parent="1">
          <mxGeometry x="430" y="380" width="120" height="60" as="geometry" />
        </mxCell>
        <mxCell id="p4Sjp9b0wxkfWSFFv8C0-10" value="&lt;b&gt;&lt;font style=&quot;font-size: 18px;&quot;&gt;Estudiante&lt;/font&gt;&lt;/b&gt;" style="rounded=0;whiteSpace=wrap;html=1;" vertex="1" parent="1">
          <mxGeometry x="430" y="110" width="120" height="60" as="geometry" />
        </mxCell>
        <mxCell id="p4Sjp9b0wxkfWSFFv8C0-11" value="&lt;b&gt;&lt;font style=&quot;font-size: 18px;&quot;&gt;Credencial&lt;/font&gt;&lt;/b&gt;" style="rounded=0;whiteSpace=wrap;html=1;" vertex="1" parent="1">
          <mxGeometry x="430" y="200" width="120" height="60" as="geometry" />
        </mxCell>
        <mxCell id="p4Sjp9b0wxkfWSFFv8C0-12" value="&lt;b&gt;&lt;font style=&quot;font-size: 18px;&quot;&gt;Inscripción&lt;/font&gt;&lt;/b&gt;" style="rounded=0;whiteSpace=wrap;html=1;" vertex="1" parent="1">
          <mxGeometry x="430" y="290" width="120" height="60" as="geometry" />
        </mxCell>
        <mxCell id="p4Sjp9b0wxkfWSFFv8C0-13" value="&lt;b&gt;&lt;font style=&quot;font-size: 18px;&quot;&gt;Reseña&lt;/font&gt;&lt;/b&gt;" style="rounded=0;whiteSpace=wrap;html=1;" vertex="1" parent="1">
          <mxGeometry x="430" y="630" width="120" height="60" as="geometry" />
        </mxCell>
        <mxCell id="p4Sjp9b0wxkfWSFFv8C0-14" value="&lt;b&gt;&lt;font style=&quot;font-size: 18px;&quot;&gt;Reseña&lt;/font&gt;&lt;/b&gt;" style="rounded=0;whiteSpace=wrap;html=1;" vertex="1" parent="1">
          <mxGeometry x="260" y="20" width="120" height="60" as="geometry" />
        </mxCell>
        <mxCell id="p4Sjp9b0wxkfWSFFv8C0-15" value="&lt;b&gt;&lt;font style=&quot;font-size: 18px;&quot;&gt;Pago&lt;/font&gt;&lt;/b&gt;" style="rounded=0;whiteSpace=wrap;html=1;" vertex="1" parent="1">
          <mxGeometry x="410" y="30" width="120" height="60" as="geometry" />
        </mxCell>
        <mxCell id="p4Sjp9b0wxkfWSFFv8C0-16" value="Posee" style="rhombus;whiteSpace=wrap;html=1;" vertex="1" parent="1">
          <mxGeometry x="190" y="205" width="100" height="50" as="geometry" />
        </mxCell>
        <mxCell id="p4Sjp9b0wxkfWSFFv8C0-17" value="" style="endArrow=none;html=1;rounded=0;entryX=0.5;entryY=1;entryDx=0;entryDy=0;exitX=0.5;exitY=0;exitDx=0;exitDy=0;" edge="1" parent="1" source="p4Sjp9b0wxkfWSFFv8C0-2" target="p4Sjp9b0wxkfWSFFv8C0-16">
          <mxGeometry width="50" height="50" relative="1" as="geometry">
            <mxPoint x="190" y="305" as="sourcePoint" />
            <mxPoint x="240" y="255" as="targetPoint" />
          </mxGeometry>
        </mxCell>
        <mxCell id="p4Sjp9b0wxkfWSFFv8C0-18" value="" style="endArrow=none;html=1;rounded=0;entryX=0.5;entryY=1;entryDx=0;entryDy=0;exitX=0.5;exitY=0;exitDx=0;exitDy=0;" edge="1" parent="1" source="p4Sjp9b0wxkfWSFFv8C0-16" target="p4Sjp9b0wxkfWSFFv8C0-1">
          <mxGeometry width="50" height="50" relative="1" as="geometry">
            <mxPoint x="250" y="290" as="sourcePoint" />
            <mxPoint x="250" y="265" as="targetPoint" />
          </mxGeometry>
        </mxCell>
      </root>
    </mxGraphModel>
  </diagram>
</mxfile>
